HIERARCHY
ROOT Hips
{
	OFFSET 0.000000 0.000000 0.000000
	CHANNELS 6 Xposition Yposition Zposition Zrotation Yrotation Xrotation 
	JOINT LHipJoint
	{
		OFFSET 0.000000 0.000000 0.000000
		CHANNELS 3 Zrotation Yrotation Xrotation
		JOINT LeftUpLeg
		{
			OFFSET 1.363060 -1.794630 0.839290
			CHANNELS 3 Zrotation Yrotation Xrotation
			JOINT LeftLeg
			{
				OFFSET 2.448110 -6.726130 0.000000
				CHANNELS 3 Zrotation Yrotation Xrotation
				JOINT LeftFoot
				{
					OFFSET 2.562200 -7.039590 0.000000
					CHANNELS 3 Zrotation Yrotation Xrotation
					JOINT LeftToeBase
					{
						OFFSET 0.157640 -0.433110 2.322550
						CHANNELS 3 Zrotation Yrotation Xrotation
						End Site
						{
							OFFSET 0.000000 0.000000 0.000000
						}
					}
				}
			}
		}
	}
	JOINT RHipJoint
	{
		OFFSET 0.000000 0.000000 0.000000
		CHANNELS 3 Zrotation Yrotation Xrotation
		JOINT RightUpLeg
		{
			OFFSET -1.305520 -1.794630 0.839290
			CHANNELS 3 Zrotation Yrotation Xrotation
			JOINT RightLeg
			{
				OFFSET -2.542530 -6.985550 0.000000
				CHANNELS 3 Zrotation Yrotation Xrotation
				JOINT RightFoot
				{
					OFFSET -2.568260 -7.056230 0.000000
					CHANNELS 3 Zrotation Yrotation Xrotation
					JOINT RightToeBase
					{
						OFFSET -0.164730 -0.452590 2.363150
						CHANNELS 3 Zrotation Yrotation Xrotation
						End Site
						{
							OFFSET 0.000000 0.000000 0.000000
						}
					}
				}
			}
		}
	}
	JOINT LowerBack
	{
		OFFSET 0.000000 0.000000 0.000000
		CHANNELS 3 Zrotation Yrotation Xrotation
		JOINT Spine
		{
			OFFSET 0.028270 2.035590 -0.193380
			CHANNELS 3 Zrotation Yrotation Xrotation
			JOINT Spine1
			{
				OFFSET 0.056720 2.048850 -0.042750
				CHANNELS 3 Zrotation Yrotation Xrotation
				JOINT Neck
				{
					OFFSET 0.000000 0.000000 0.000000
					CHANNELS 3 Zrotation Yrotation Xrotation
					JOINT Neck1
					{
						OFFSET -0.054170 1.746240 0.172020
						CHANNELS 3 Zrotation Yrotation Xrotation
						JOINT Head
						{
							OFFSET 0.104070 1.761360 -0.123970
							CHANNELS 3 Zrotation Yrotation Xrotation
							End Site
							{
								OFFSET 0.000000 0.000000 0.000000
							}
						}
					}
				}
				JOINT LeftShoulder
				{
					OFFSET 0.000000 0.000000 0.000000
					CHANNELS 3 Zrotation Yrotation Xrotation
					JOINT LeftArm
					{
						OFFSET 3.362410 1.200890 -0.311210
						CHANNELS 3 Zrotation Yrotation Xrotation
						JOINT LeftForeArm
						{
							OFFSET 4.983000 -0.000000 -0.000000
							CHANNELS 3 Zrotation Yrotation Xrotation
							JOINT LeftHand
							{
								OFFSET 3.483560 -0.000000 -0.000000
								CHANNELS 3 Zrotation Yrotation Xrotation
								JOINT LeftFingerBase
								{
									OFFSET 0.000000 0.000000 0.000000
									CHANNELS 3 Zrotation Yrotation Xrotation
									JOINT LeftHandIndex1
									{
										OFFSET 0.715260 -0.000000 -0.000000
										CHANNELS 3 Zrotation Yrotation Xrotation
										End Site
										{
											OFFSET 0.000000 0.000000 0.000000
										}
									}
								}
								JOINT LThumb
								{
									OFFSET 0.000000 0.000000 0.000000
									CHANNELS 3 Zrotation Yrotation Xrotation
									End Site
									{
										OFFSET 0.000000 0.000000 0.000000
									}
								}
							}
						}
					}
				}
				JOINT RightShoulder
				{
					OFFSET 0.000000 0.000000 0.000000
					CHANNELS 3 Zrotation Yrotation Xrotation
					JOINT RightArm
					{
						OFFSET -3.136600 1.374050 -0.404650
						CHANNELS 3 Zrotation Yrotation Xrotation
						JOINT RightForeArm
						{
							OFFSET -5.241900 -0.000000 -0.000000
							CHANNELS 3 Zrotation Yrotation Xrotation
							JOINT RightHand
							{
								OFFSET -3.444170 -0.000000 -0.000000
								CHANNELS 3 Zrotation Yrotation Xrotation
								JOINT RightFingerBase
								{
									OFFSET 0.000000 0.000000 0.000000
									CHANNELS 3 Zrotation Yrotation Xrotation
									JOINT RightHandIndex1
									{
										OFFSET -0.622530 -0.000000 -0.000000
										CHANNELS 3 Zrotation Yrotation Xrotation
										End Site
										{
											OFFSET 0.000000 0.000000 0.000000
										}
									}
								}
								JOINT RThumb
								{
									OFFSET 0.000000 0.000000 0.000000
									CHANNELS 3 Zrotation Yrotation Xrotation
									End Site
									{
										OFFSET 0.000000 0.000000 0.000000
									}
								}
							}
						}
					}
				}
			}
		}
	}
}
MOTION
Frames: 4
Frame Time: 0.008333
0.506354 20.474675 4.862298 -2.182902 -0.181158 6.705071 -1.076892 -1.632066 -0.890530 -13.490058 2.473778 -33.823980 -0.462998 6.869658 17.885128 1.978143 5.245389 29.813265 0.109040 -2.125667 -5.853246 -0.578442 0.972119 -0.630074 18.890996 3.714587 -34.367216 -0.328708 -7.905943 20.255877 -0.726844 -9.811370 24.084795 -0.462178 -4.347814 12.059254 -0.321564 1.027538 7.945007 0.884953 1.483710 -1.832702 0.441248 0.566383 3.261445 -3.167078 -1.508855 -4.345165 5.188393 -2.543937 26.701031 1.055193 -0.539721 9.086519 9.250582 5.252158 0.005172 -75.527963 14.297975 47.894611 18.826354 -34.462764 -6.628266 0.184632 -0.824681 -33.993014 21.918357 -5.262626 -1.798543 -7.125000 0.000000 0.000000 -3.322787 25.220663 1.592698 -8.447776 -4.391991 -0.012661 83.868149 -3.887164 30.397781 -20.331146 35.612619 -7.571043 0.594774 0.828326 32.028562 -17.286533 -22.868035 7.223547 7.125000 0.000000 0.000000 12.649014 -54.462360 -2.976801
0.518398 20.116213 5.270769 -2.268709 -0.440054 6.233352 -1.296242 -1.559223 -0.769476 -12.970988 2.383103 -32.273757 -0.671071 6.195857 15.934648 2.004381 6.650225 30.979705 0.084691 -1.876582 -5.164800 -0.412337 0.935810 -0.631205 18.560307 4.049803 -33.261067 -0.119729 -7.316514 18.475950 -0.557116 -11.438474 24.402229 -0.661076 -5.197385 14.472850 -0.055227 1.125570 7.033977 0.849669 1.617415 -1.860830 0.228434 0.647537 3.542741 -3.174274 -1.524353 -4.215869 5.158764 -2.576656 27.357364 1.073788 -0.549738 9.280176 9.264217 5.304392 -0.031018 -74.442053 15.670945 48.577337 20.017346 -35.901608 -7.349243 0.199647 -0.836692 -34.634379 22.117007 -5.248013 -1.803513 -7.125000 0.000000 0.000000 -3.170848 25.248257 1.517631 -8.475330 -4.432161 -0.012130 83.413405 -4.695068 31.004150 -21.059391 36.448956 -8.019994 0.588861 0.828524 31.665122 -17.334163 -22.860982 7.242016 7.125000 0.000000 0.000000 12.594557 -54.461307 -2.963323
0.529216 19.733356 5.670940 -2.289676 -0.723513 5.702804 -1.467111 -1.471129 -0.645637 -12.697422 2.441073 -30.963761 -0.789091 5.736465 14.600472 2.011561 7.871828 31.907049 0.069649 -1.701772 -4.682247 -0.301667 0.886053 -0.625990 18.394470 4.215322 -32.434593 -0.057042 -7.068023 17.677546 -0.310873 -13.015117 24.286154 -0.878186 -5.969339 16.696942 0.110260 1.226183 6.250333 0.818286 1.746914 -1.896553 0.091285 0.720737 3.745077 -3.227181 -1.515606 -4.167058 5.148802 -2.569116 27.995734 1.111005 -0.543839 9.500565 9.271796 5.343583 -0.069623 -73.408221 16.832103 49.187389 20.984290 -37.026167 -7.953617 0.212239 -0.846744 -35.342837 22.320119 -5.220914 -1.805169 -7.125000 0.000000 0.000000 -3.013916 25.285402 1.439769 -8.496126 -4.459678 -0.014871 83.029594 -5.231404 31.375882 -21.586665 37.037993 -8.350782 0.585416 0.829529 31.372054 -17.380294 -22.888963 7.270551 7.125000 0.000000 0.000000 12.558374 -54.496882 -2.965615
0.538717 19.328945 6.059404 -2.224629 -1.025029 5.109016 -1.579092 -1.384795 -0.522403 -12.686243 2.617964 -29.929386 -0.833331 5.514056 13.968770 1.979578 8.582229 32.275318 0.063748 -1.629062 -4.481588 -0.237449 0.835514 -0.613291 18.380469 4.111900 -31.829988 -0.087065 -7.083380 17.665575 -0.178923 -14.033104 24.420212 -1.092109 -6.636990 18.645829 0.145257 1.323216 5.645835 0.792353 1.866726 -1.944626 0.040545 0.782704 3.824164 -3.314424 -1.484379 -4.158696 5.153404 -2.523864 28.552812 1.159825 -0.523831 9.715678 9.273996 5.365878 -0.109112 -72.499210 17.727485 49.712468 21.621401 -37.755995 -8.361867 0.221960 -0.854291 -36.162638 22.471836 -5.177583 -1.797539 -7.125000 0.000000 0.000000 -2.893573 25.336456 1.378656 -8.509013 -4.471655 -0.019968 82.771774 -5.492559 31.493825 -21.840090 37.317481 -8.511932 0.585798 0.831282 31.227072 -17.440922 -22.977586 7.323667 7.125000 0.000000 0.000000 12.536491 -54.598805 -2.991638
